# xmcd
#
# Track frame offsets: 
#        150
#        27490
#        43947
#        58917
#        92132
#        109247
#        127212
#        142402
#        159775
#        177602
#        194665
#        207785
#        217885
#        233520
#        251567
#        266920
#        284825
#        301330
#
# Disc length: 4218 seconds
#
# Revision: 17
# Processed by: cddbd v1.5.1PL2 Copyright (c) Steve Scherf et al.
# Submitted via: ExactAudioCopy v0.95b4
#
DISCID=25107812
DTITLE=Various Artist - CHICAGO
DYEAR=2002
DGENRE=Soundtrack
TTITLE0=OVERTURE£¯AND ALL THAT JAZZ
TTITLE1=FUNNY HONEY
TTITLE2=WHEN YOU'RE GOOD TO MUMMA
TTITLE3=CELL BLOCK TANGO
TTITLE4=ALL I CARE ABOUT
TTITLE5=WE BOTH REACHED FOR THE GUN
TTITLE6=ROXIE
TTITLE7=I CAN'T DO IT ALONE
TTITLE8=MISTER CELLOPHANE
TTITLE9=RAZZLE DAZZLE
TTITLE10=CLASS
TTITLE11=NOWADAYS (ROXIE)
TTITLE12=NOWADAYS£¯HOT HONEY RAG
TTITLE13=CATHERINE ZETA-JONES AND RENEE ZELLWEGER£ºI MOVE ON
TTITLE14=DANNY ELFMAN£ºAFTER MIDNIGHT
TTITLE15=DANNY ELFMAN£ºROXIE'S SUITE
TTITLE16=QUEEN LATIFAH FEATURING LIL' KIM AND MACY GRAY£ºCELL BLOCK TA
TTITLE16=NGO (HE HAD IT COMIN')
TTITLE17=ANASTACIA£ºLOVE IS A CRIME
EXTD=Music by John Kander\nLyrics by Fred Ebb\nOriginal Score Music by
EXTD=Danny Elfman\n\nEpic - Sony Music  EK 87018\n(p) and (c) 2002 Sony
EXTD=Music Entertainment Inc. YEAR: 2002
EXTT0=
EXTT1=
EXTT2=
EXTT3=
EXTT4=
EXTT5=
EXTT6=
EXTT7=
EXTT8=
EXTT9=
EXTT10=not in film
EXTT11=
EXTT12=
EXTT13=
EXTT14=
EXTT15=
EXTT16=not in film\n- additional track inspired by the movie
EXTT17=not in film\n- additional track inspired by the movie
PLAYORDER=
